<svg width="1000" height="1000" xmlns="http://www.w3.org/2000/svg">
  <g fill="#FFF">
    <!-- Small stars -->
    <circle cx="50" cy="50" r="1" opacity="0.8" />
    <circle cx="150" cy="80" r="1.2" opacity="0.7" />
    <circle cx="250" cy="30" r="0.8" opacity="0.9" />
    <circle cx="350" cy="90" r="1" opacity="0.8" />
    <circle cx="450" cy="40" r="1.2" opacity="0.7" />
    <circle cx="550" cy="70" r="0.8" opacity="0.9" />
    <circle cx="650" cy="20" r="1" opacity="0.8" />
    <circle cx="750" cy="60" r="1.2" opacity="0.7" />
    <circle cx="850" cy="90" r="0.8" opacity="0.9" />
    <circle cx="950" cy="30" r="1" opacity="0.8" />
    
    <circle cx="100" cy="150" r="1.2" opacity="0.7" />
    <circle cx="200" cy="180" r="0.8" opacity="0.9" />
    <circle cx="300" cy="130" r="1" opacity="0.8" />
    <circle cx="400" cy="190" r="1.2" opacity="0.7" />
    <circle cx="500" cy="140" r="0.8" opacity="0.9" />
    <circle cx="600" cy="170" r="1" opacity="0.8" />
    <circle cx="700" cy="120" r="1.2" opacity="0.7" />
    <circle cx="800" cy="160" r="0.8" opacity="0.9" />
    <circle cx="900" cy="190" r="1" opacity="0.8" />
    
    <!-- Medium stars -->
    <circle cx="75" cy="250" r="1.5" opacity="0.8" />
    <circle cx="175" cy="280" r="1.7" opacity="0.7" />
    <circle cx="275" cy="230" r="1.3" opacity="0.9" />
    <circle cx="375" cy="290" r="1.5" opacity="0.8" />
    <circle cx="475" cy="240" r="1.7" opacity="0.7" />
    <circle cx="575" cy="270" r="1.3" opacity="0.9" />
    <circle cx="675" cy="220" r="1.5" opacity="0.8" />
    <circle cx="775" cy="260" r="1.7" opacity="0.7" />
    <circle cx="875" cy="290" r="1.3" opacity="0.9" />
    <circle cx="975" cy="230" r="1.5" opacity="0.8" />
    
    <!-- Repeat pattern for more coverage -->
    <circle cx="50" cy="350" r="1" opacity="0.8" />
    <circle cx="150" cy="380" r="1.2" opacity="0.7" />
    <circle cx="250" cy="330" r="0.8" opacity="0.9" />
    <circle cx="350" cy="390" r="1" opacity="0.8" />
    <circle cx="450" cy="340" r="1.2" opacity="0.7" />
    <circle cx="550" cy="370" r="0.8" opacity="0.9" />
    <circle cx="650" cy="320" r="1" opacity="0.8" />
    <circle cx="750" cy="360" r="1.2" opacity="0.7" />
    <circle cx="850" cy="390" r="0.8" opacity="0.9" />
    <circle cx="950" cy="330" r="1" opacity="0.8" />
    
    <!-- Large stars (fewer) -->
    <circle cx="125" cy="450" r="2" opacity="0.8" />
    <circle cx="325" cy="480" r="2.2" opacity="0.7" />
    <circle cx="525" cy="430" r="1.8" opacity="0.9" />
    <circle cx="725" cy="490" r="2" opacity="0.8" />
    <circle cx="925" cy="440" r="2.2" opacity="0.7" />
    
    <!-- Continue pattern for full coverage -->
    <circle cx="50" cy="550" r="1" opacity="0.8" />
    <circle cx="150" cy="580" r="1.2" opacity="0.7" />
    <circle cx="250" cy="530" r="0.8" opacity="0.9" />
    <circle cx="350" cy="590" r="1" opacity="0.8" />
    <circle cx="450" cy="540" r="1.2" opacity="0.7" />
    <circle cx="550" cy="570" r="0.8" opacity="0.9" />
    <circle cx="650" cy="520" r="1" opacity="0.8" />
    <circle cx="750" cy="560" r="1.2" opacity="0.7" />
    <circle cx="850" cy="590" r="0.8" opacity="0.9" />
    <circle cx="950" cy="530" r="1" opacity="0.8" />
    
    <circle cx="75" cy="650" r="1.5" opacity="0.8" />
    <circle cx="175" cy="680" r="1.7" opacity="0.7" />
    <circle cx="275" cy="630" r="1.3" opacity="0.9" />
    <circle cx="375" cy="690" r="1.5" opacity="0.8" />
    <circle cx="475" cy="640" r="1.7" opacity="0.7" />
    <circle cx="575" cy="670" r="1.3" opacity="0.9" />
    <circle cx="675" cy="620" r="1.5" opacity="0.8" />
    <circle cx="775" cy="660" r="1.7" opacity="0.7" />
    <circle cx="875" cy="690" r="1.3" opacity="0.9" />
    <circle cx="975" cy="630" r="1.5" opacity="0.8" />
    
    <circle cx="50" cy="750" r="1" opacity="0.8" />
    <circle cx="150" cy="780" r="1.2" opacity="0.7" />
    <circle cx="250" cy="730" r="0.8" opacity="0.9" />
    <circle cx="350" cy="790" r="1" opacity="0.8" />
    <circle cx="450" cy="740" r="1.2" opacity="0.7" />
    <circle cx="550" cy="770" r="0.8" opacity="0.9" />
    <circle cx="650" cy="720" r="1" opacity="0.8" />
    <circle cx="750" cy="760" r="1.2" opacity="0.7" />
    <circle cx="850" cy="790" r="0.8" opacity="0.9" />
    <circle cx="950" cy="730" r="1" opacity="0.8" />
    
    <circle cx="125" cy="850" r="2" opacity="0.8" />
    <circle cx="325" cy="880" r="2.2" opacity="0.7" />
    <circle cx="525" cy="830" r="1.8" opacity="0.9" />
    <circle cx="725" cy="890" r="2" opacity="0.8" />
    <circle cx="925" cy="840" r="2.2" opacity="0.7" />
    
    <circle cx="50" cy="950" r="1" opacity="0.8" />
    <circle cx="150" cy="980" r="1.2" opacity="0.7" />
    <circle cx="250" cy="930" r="0.8" opacity="0.9" />
    <circle cx="350" cy="990" r="1" opacity="0.8" />
    <circle cx="450" cy="940" r="1.2" opacity="0.7" />
    <circle cx="550" cy="970" r="0.8" opacity="0.9" />
    <circle cx="650" cy="920" r="1" opacity="0.8" />
    <circle cx="750" cy="960" r="1.2" opacity="0.7" />
    <circle cx="850" cy="990" r="0.8" opacity="0.9" />
    <circle cx="950" cy="930" r="1" opacity="0.8" />
  </g>
</svg>